<?xml version="1.0" encoding="utf-8"?>
<!-- Generator: Adobe Illustrator 16.0.0, SVG Export Plug-In . SVG Version: 6.00 Build 0)  -->
<!DOCTYPE svg PUBLIC "-//W3C//DTD SVG 1.1//EN" "http://www.w3.org/Graphics/SVG/1.1/DTD/svg11.dtd">
<svg version="1.1" id="Layer_1" xmlns="http://www.w3.org/2000/svg" xmlns:xlink="http://www.w3.org/1999/xlink" x="0px" y="0px"
	 width="841.891px" height="595.281px" viewBox="0 0 841.891 595.281" enable-background="new 0 0 841.891 595.281"
	 xml:space="preserve">
<g>
	<g>
		<path fill="#FFFFFF" d="M420.94,0C256.563,0,123.306,133.261,123.306,297.637c0,164.372,133.257,297.644,297.634,297.644
			c164.376,0,297.643-133.271,297.643-297.644C718.583,133.261,585.316,0,420.94,0z M420.946,104.544l176.131,109.831H244.814
			L420.946,104.544z M599.272,389.759h-0.019c0,17.617-14.276,31.893-31.891,31.893H274.529c-17.616,0-31.892-14.277-31.892-31.893
			V221.363c0-1.863,0.19-3.675,0.5-5.455l168.284,104.935c0.206,0.129,0.426,0.217,0.639,0.336c0.222,0.123,0.448,0.242,0.675,0.355
			c1.188,0.613,2.413,1.107,3.665,1.43c0.129,0.035,0.258,0.053,0.387,0.082c1.373,0.322,2.764,0.525,4.153,0.525h0.01
			c0.01,0,0.02,0,0.02,0c1.39,0,2.78-0.197,4.153-0.525c0.129-0.031,0.258-0.047,0.387-0.082c1.251-0.322,2.471-0.816,3.665-1.43
			c0.227-0.113,0.453-0.232,0.675-0.355c0.211-0.119,0.433-0.207,0.64-0.336l168.283-104.935c0.31,1.78,0.5,3.588,0.5,5.455V389.759
			L599.272,389.759z"/>
	</g>
</g>
</svg>
