<?xml version="1.0" encoding="utf-8"?>
<!-- Generator: Adobe Illustrator 16.0.0, SVG Export Plug-In . SVG Version: 6.00 Build 0)  -->
<!DOCTYPE svg PUBLIC "-//W3C//DTD SVG 1.1//EN" "http://www.w3.org/Graphics/SVG/1.1/DTD/svg11.dtd">
<svg version="1.1" id="Layer_1" xmlns="http://www.w3.org/2000/svg" xmlns:xlink="http://www.w3.org/1999/xlink" x="0px" y="0px"
	 width="841.891px" height="595.281px" viewBox="0 0 841.891 595.281" enable-background="new 0 0 841.891 595.281"
	 xml:space="preserve">
<g>
	<g>
		<g>
			<circle fill="#FFFFFF" cx="420.947" cy="448.613" r="23.252"/>
			<path fill="#FFFFFF" d="M485.812,135.422H356.077c-7.272,0-13.189,5.641-13.189,12.563v245.239
				c0,6.929,5.913,12.563,13.189,12.563h129.734c7.272,0,13.189-5.641,13.189-12.563V147.985
				C498.997,141.058,493.085,135.422,485.812,135.422z"/>
			<path fill="#FFFFFF" d="M420.937,0C256.562,0,123.306,133.266,123.306,297.634c0,164.369,133.256,297.646,297.631,297.646
				S718.583,462.01,718.583,297.634S585.312,0,420.937,0z M536.735,444.517c0,22.736-18.434,41.173-41.172,41.173H346.318
				c-22.734,0-41.171-18.435-41.171-41.173V149.461c0-22.736,18.435-41.171,41.171-41.171h149.245
				c22.736,0,41.172,18.434,41.172,41.171V444.517z"/>
		</g>
	</g>
</g>
</svg>
