<?xml version="1.0" encoding="utf-8"?>
<!-- Generator: Adobe Illustrator 16.0.0, SVG Export Plug-In . SVG Version: 6.00 Build 0)  -->
<!DOCTYPE svg PUBLIC "-//W3C//DTD SVG 1.1//EN" "http://www.w3.org/Graphics/SVG/1.1/DTD/svg11.dtd">
<svg version="1.1" id="Layer_1" xmlns="http://www.w3.org/2000/svg" xmlns:xlink="http://www.w3.org/1999/xlink" x="0px" y="0px"
	 width="841.891px" height="595.281px" viewBox="0 0 841.891 595.281" enable-background="new 0 0 841.891 595.281"
	 xml:space="preserve">
<g>
	<g>
		<g>
			<path fill="#FFFFFF" d="M524.336,191.018c-11.061-10.725-23.771-19.757-37.724-26.663c6.737,10.237,12.666,22.083,17.595,35.294
				C511.285,197.111,518.011,194.224,524.336,191.018z"/>
			<path fill="#FFFFFF" d="M346.739,287.348h63.907v-54.15c-19.099-0.83-37.563-3.521-54.768-7.916
				C350.727,244.097,347.501,265.166,346.739,287.348z"/>
			<path fill="#FFFFFF" d="M354.629,365.011c17.585-4.611,36.499-7.457,56.018-8.32v-48.758h-63.903
				C347.456,328.177,350.223,347.488,354.629,365.011z"/>
			<path fill="#FFFFFF" d="M362.234,205.701c15.176,3.778,31.49,6.109,48.412,6.885v-63.171c-2.98,0.206-5.929,0.5-8.857,0.881
				C385.97,159.888,372.116,179.686,362.234,205.701z"/>
			<path fill="#FFFFFF" d="M315.624,402.39c13.267,13.334,29.042,24.156,46.543,31.727c-8.477-12.096-15.753-26.701-21.512-43.256
				C331.671,394.175,323.283,398.031,315.624,402.39z"/>
			<path fill="#FFFFFF" d="M361.988,161.242c-15.911,6.907-30.373,16.519-42.832,28.254c7.169,3.843,14.924,7.221,23.129,10.169
				C347.721,185.084,354.377,172.157,361.988,161.242z"/>
			<path fill="#FFFFFF" d="M336.009,219.22c-11.188-3.972-21.641-8.723-31.167-14.203c-18.317,22.912-29.988,51.325-32.123,82.331
				h53.404C326.879,262.824,330.349,239.82,336.009,219.22z"/>
			<path fill="#FFFFFF" d="M326.129,307.933H272.72c2.018,29.35,12.556,56.398,29.21,78.631
				c9.911-5.955,20.937-11.133,32.824-15.424C329.855,351.82,326.839,330.525,326.129,307.933z"/>
			<path fill="#FFFFFF" d="M402.166,445.037c2.804,0.35,5.629,0.635,8.48,0.83v-68.564c-17.522,0.824-34.444,3.336-50.126,7.379
				C370.552,413.222,385.244,434.966,402.166,445.037z"/>
			<path fill="#FFFFFF" d="M511.758,371.058c10.586,3.834,20.513,8.357,29.591,13.566c15.835-21.863,25.861-48.176,27.821-76.686
				h-48.803C519.658,330.494,516.652,351.765,511.758,371.058z"/>
			<path fill="#FFFFFF" d="M486.448,431.009c15.517-7.654,29.494-17.936,41.388-30.26c-6.824-3.67-14.199-6.959-22.016-9.83
				C500.544,406.052,494.008,419.564,486.448,431.009z"/>
			<path fill="#FFFFFF" d="M420.939,0C256.564,0,123.31,133.266,123.31,297.634c0,164.369,133.254,297.646,297.629,297.646
				s297.64-133.27,297.64-297.646S585.316,0,420.939,0z M420.945,477.14c-98.976,0-179.501-80.52-179.501-179.5
				c0-98.981,80.525-179.501,179.501-179.501s179.501,80.52,179.501,179.501C600.446,396.621,519.921,477.14,420.945,477.14z"/>
			<path fill="#FFFFFF" d="M446.183,151.205c-4.909-0.843-9.896-1.44-14.95-1.792v63.372c18.521-0.546,36.416-3,53.002-7.138
				C474.667,180.473,461.375,161.113,446.183,151.205z"/>
			<path fill="#FFFFFF" d="M510.477,219.204c5.667,20.601,9.136,43.616,9.892,68.144h48.797
				c-2.073-30.214-13.211-57.958-30.725-80.551C529.79,211.515,520.434,215.674,510.477,219.204z"/>
			<path fill="#FFFFFF" d="M431.233,445.865c4.941-0.336,9.82-0.92,14.62-1.729c16.273-10.441,30.373-31.752,40.106-59.424
				c-17.091-4.412-35.628-7.031-54.727-7.605V445.865z"/>
			<path fill="#FFFFFF" d="M490.596,225.23c-18.62,4.766-38.679,7.566-59.363,8.141v53.976h68.525
				C498.99,265.152,495.758,244.061,490.596,225.23z"/>
			<path fill="#FFFFFF" d="M499.753,307.933h-68.52v48.586c21.296,0.572,41.773,3.418,60.665,8.348
				C496.288,347.386,499.042,328.126,499.753,307.933z"/>
		</g>
	</g>
</g>
</svg>
