<?xml version="1.0" encoding="utf-8"?>
<!-- Generator: Adobe Illustrator 16.0.0, SVG Export Plug-In . SVG Version: 6.00 Build 0)  -->
<!DOCTYPE svg PUBLIC "-//W3C//DTD SVG 1.1//EN" "http://www.w3.org/Graphics/SVG/1.1/DTD/svg11.dtd">
<svg version="1.1" id="Layer_1" xmlns="http://www.w3.org/2000/svg" xmlns:xlink="http://www.w3.org/1999/xlink" x="0px" y="0px"
	 width="841.891px" height="595.281px" viewBox="0 0 841.891 595.281" enable-background="new 0 0 841.891 595.281"
	 xml:space="preserve">
<g>
	<g>
		<g>
			<circle fill="#FFFFFF" cx="421.815" cy="219.407" r="47.918"/>
			<path fill="#FFFFFF" d="M420.94,0C256.563,0,123.306,133.261,123.306,297.637c0,164.372,133.257,297.644,297.634,297.644
				c164.376,0,297.643-133.271,297.643-297.644C718.583,133.261,585.316,0,420.94,0z M420.323,136.277c0.21,0,0.416-0.01,0.623-0.02
				c0.206,0.01,0.411,0.02,0.623,0.02c50.151,0.792,90.948,42.242,90.948,92.404c0,61.331-65.529,123.434-91.571,145.684
				c-1.74-1.488-3.669-3.164-5.732-5.002c-0.036-0.031-0.068-0.057-0.098-0.088c-28.819-25.607-85.739-83.428-85.739-140.594
				C329.375,178.519,370.176,137.071,420.323,136.277z M422.238,460.851c-54.892,0-110.464-15.748-110.464-45.834
				c0-21.113,27.363-35.154,62.643-41.66c6.823,6.859,13.282,12.908,18.949,17.957c-38.428,4.291-61.005,16.457-61.005,23.697
				c0,8.898,34.12,25.248,89.877,25.248c55.756,0,89.882-16.35,89.882-25.248c0-7.389-23.529-19.859-63.353-23.914
				c5.717-5.105,12.228-11.209,19.104-18.141c36.338,6.326,64.834,20.508,64.834,42.061
				C532.705,445.103,477.134,460.851,422.238,460.851z"/>
		</g>
	</g>
</g>
</svg>
